<svg xmlns="http://www.w3.org/2000/svg" viewBox="0 0 1200 720" role="img" aria-labelledby="title desc">
  <title id="title">Elegant wedding venue terrace illustration</title>
  <desc id="desc">A warm neutral illustration of a club terrace with greenery, soft florals, and evening light.</desc>
  <defs>
    <linearGradient id="sky" x1="0" x2="0" y1="0" y2="1">
      <stop offset="0" stop-color="#d9c9b2"/>
      <stop offset="0.55" stop-color="#efe1cf"/>
      <stop offset="1" stop-color="#b7b59d"/>
    </linearGradient>
    <linearGradient id="lawn" x1="0" x2="1" y1="0" y2="1">
      <stop offset="0" stop-color="#70785f"/>
      <stop offset="1" stop-color="#9a8d6e"/>
    </linearGradient>
    <filter id="soft" x="-20%" y="-20%" width="140%" height="140%">
      <feGaussianBlur stdDeviation="2"/>
    </filter>
  </defs>
  <rect width="1200" height="720" fill="url(#sky)"/>
  <circle cx="965" cy="132" r="78" fill="#fff2d0" opacity=".72" filter="url(#soft)"/>
  <path d="M0 501c125-58 256-79 393-63 128 15 220 55 336 49 145-7 246-77 471-39v272H0Z" fill="url(#lawn)"/>
  <path d="M90 338h1020v236H90Z" fill="#d8c6ae"/>
  <path d="M140 288h920v70H140Z" fill="#efe3d2"/>
  <path d="M175 210h850v88H175Z" fill="#a77b68"/>
  <path d="M224 170h752l68 48H156Z" fill="#7f5d52"/>
  <g fill="#f7efe2">
    <rect x="178" y="356" width="96" height="190"/>
    <rect x="330" y="356" width="96" height="190"/>
    <rect x="482" y="356" width="96" height="190"/>
    <rect x="634" y="356" width="96" height="190"/>
    <rect x="786" y="356" width="96" height="190"/>
    <rect x="938" y="356" width="96" height="190"/>
  </g>
  <g fill="#5f6f58">
    <path d="M0 402c52-79 111-79 176 0v318H0Z"/>
    <path d="M1034 396c55-91 111-90 166 0v324h-166Z"/>
    <path d="M83 439c35-62 77-65 126-9v290H83Z" opacity=".82"/>
    <path d="M982 436c37-64 80-68 128-10v294H982Z" opacity=".82"/>
  </g>
  <g fill="#e7b7ad" opacity=".9">
    <circle cx="120" cy="424" r="13"/>
    <circle cx="151" cy="399" r="10"/>
    <circle cx="1052" cy="421" r="12"/>
    <circle cx="1084" cy="394" r="10"/>
    <circle cx="1017" cy="454" r="9"/>
  </g>
  <path d="M0 572h1200v148H0Z" fill="#766b56" opacity=".9"/>
  <path d="M156 602c144-38 304-53 480-45 165 8 302 30 408 66" fill="none" stroke="#efe1cf" stroke-width="10" opacity=".42"/>
</svg>
